PathFileType	4	(X/Y/Z)	1_2_41_p1_0-306_filt_butterworth.trc
DataRate	CameraRate	NumFrames	NumMarkers	Units	OrigDataRate	OrigDataStartFrame	OrigNumFrames
59.0	59.0	6	27	m	59.0	38	306
Frame#	Time	RHip			RKnee			RAnkle			RBigToe			RSmallToe			RHeel			LHip			LKnee			LAnkle			LBigToe			LSmallToe			LHeel			Neck			Head			Nose			RShoulder			RElbow			RWrist			RThumb			RIndex			RPinky			LShoulder			LElbow			LWrist			LThumb			LIndex			LPinky			
		X1	Y1	Z1	X2	Y2	Z2	X3	Y3	Z3	X4	Y4	Z4	X5	Y5	Z5	X6	Y6	Z6	X7	Y7	Z7	X8	Y8	Z8	X9	Y9	Z9	X10	Y10	Z10	X11	Y11	Z11	X12	Y12	Z12	X13	Y13	Z13	X14	Y14	Z14	X15	Y15	Z15	X16	Y16	Z16	X17	Y17	Z17	X18	Y18	Z18	X19	Y19	Z19	X20	Y20	Z20	X21	Y21	Z21	X22	Y22	Z22	X23	Y23	Z23	X24	Y24	Z24	X25	Y25	Z25	X26	Y26	Z26	X27	Y27	Z27	
38	0.6440677966101694	0.36773296999968563	0.2812801614332198	1.1211819090417106	0.37627898344409194	0.3470887043630492	1.4970268681134704	0.3736927766066424	0.41648969788536927	1.947277993013274	0.3509413744643078	0.23847831600330538	1.9855072671129759	0.4121651747804931	0.3007927304066191	2.0110424923058923	0.3409068690083581	0.4759341236215089	2.0008792572713263	0.136021768643846	0.2841044635211484	1.1344941137929907	0.17748224296664583	0.3395285295678298	1.5167223549196833	0.19347302772254624	0.4276564505644713	1.9504212779421124	0.17243645036862593	0.21070049253211343	1.9948820578360094	0.12074113081345345	0.24268109604858998	1.9824769457946747	0.21472302951703545	0.47018896262646875	1.9970752896349118	0.2638363776265001	0.21602849986792408	0.46369918815335337	0.2599981415552279	0.11056800888696537	0.2198875967041543	0.2644431568479716	0.09017707083503988	0.3703993774768775	0.4482159181445192	0.1966812343405426	0.5481516715831075	0.4744487317603292	0.20780547909670677	0.8699953650480017	0.3197889603155174	0.09312857931534058	1.0612653133853112	0.2689597918121291	0.03284356720343066	1.1220120827865459	0.24363623966492762	0.08014259443305607	1.1469617801891396	0.239474022892072	0.11140017110874145	1.1459102274338004	0.09256426391013309	0.243073271488924	0.5599716102085398	0.052028974379247736	0.219761325046743	0.850208588822868	0.19096112989647204	0.10161319293374106	1.0455598527967584	0.2936778230904643	0.023016916731038995	1.0838119919220837	0.2932800028611292	0.02613567171563299	1.1152646912728006	0.2398147806819172	0.09188299264267849	1.158096405511422
39	0.6610169491525424	0.36772869604846037	0.28129963506443345	1.1221970581096306	0.37633001994472415	0.3469276047196936	1.496949219394524	0.37368624162156505	0.4165359471152295	1.947283960920488	0.35107910065215236	0.23896746717318534	1.9854832701739955	0.4120922545282026	0.3010275622377578	2.0107191297010893	0.3419275043537555	0.4761749635538419	2.0010438878253494	0.13602301309025885	0.2838684395777704	1.1344482828437288	0.177469505544776	0.3395794339623074	1.5165538206936326	0.19345015749009006	0.4276602497523688	1.9503403438538232	0.17129599575148088	0.2101138059442488	1.9947777505709834	0.1209417912247536	0.24065494517866065	1.97985490283788	0.21469545463682455	0.47017970563469785	1.9969741503335396	0.2638388152461026	0.21602072436796366	0.4637143474478771	0.25995533421153744	0.11069102876565892	0.21963897958525808	0.26444952416498285	0.09017447397919154	0.37039847575835727	0.44816905632922815	0.19662963174571252	0.5484571689349127	0.4744781125227404	0.207643004332089	0.8703331045461771	0.32028844237130016	0.0944295940251153	1.0630257169498571	0.26900422196556	0.029979246070477233	1.121615292418396	0.24388468065984412	0.07997021933064612	1.148945028714188	0.24018404507654723	0.11437363700980516	1.1469997895152861	0.09259564651622426	0.24307535659300034	0.5612514398264686	0.05308196879774968	0.22033021540583697	0.8506095355640995	0.19153972156203208	0.09984831439208991	1.046532268021775	0.29382192132902185	0.022940047210453583	1.0841520797431674	0.2933639625273647	0.025624288743187756	1.1155304883695223	0.23967035646402868	0.091650799413606	1.1588970718643918
40	0.6779661016949152	0.36772413710009993	0.28128811288566974	1.1227048045495247	0.3763308689680077	0.346841784048869	1.4969271295750497	0.373693190299073	0.41658324822973974	1.9472540367665268	0.35130493117857736	0.23971034689876652	1.9856356718105799	0.4122018306041619	0.30145775159549004	2.0106538949599733	0.34326774458859827	0.47686856419788737	2.001258176020506	0.13601274836168428	0.2838628405488414	1.1344588398849722	0.17747406056717288	0.3395658761802614	1.5165101796365934	0.193449075825976	0.42766385014763175	1.9503156092825655	0.1710213301954156	0.21448132579826257	1.997124102173716	0.12189150475886552	0.23686021127642112	1.9780239134920077	0.21469095366388047	0.4701760039348461	1.9969193446584874	0.2637742353319379	0.21576297484036985	0.4637395178280845	0.2600014215053191	0.11064583755724322	0.21968594086712342	0.2644563199037681	0.09017039439828528	0.3704059287636373	0.4482688160971426	0.19630732799153364	0.5492301887700701	0.4745618482055655	0.20724949982324886	0.8711721057324304	0.32098859774764	0.09660833445820648	1.0642007411893784	0.26898950000104405	0.029088151219197424	1.1216823612114173	0.24396456648319098	0.07957186308079761	1.149660071455268	0.24051419346685535	0.1158325365874593	1.1482598275484102	0.09264136298206432	0.24323861186711385	0.5630173212314458	0.054499023373635776	0.2210802631905719	0.8516520148766626	0.19271506349902512	0.09627904546967096	1.0472213600879443	0.29388932743393986	0.0229259238687637	1.0841412546934885	0.29346745013753844	0.025102573869754893	1.1163335964779566	0.23962815327929549	0.09157191420305477	1.1589110377937788
41	0.6949152542372882	0.3677514600629651	0.2811988336263954	1.1229298778154466	0.37616762244570945	0.34682087753472735	1.4970559461328645	0.3737045213043116	0.41663911822184657	1.9471917039339668	0.35152844895046814	0.2403656231667943	1.9857245884871446	0.4123028197010948	0.3016861669445507	2.0106656243946266	0.3442772130478511	0.4777664521112663	2.0014737474862487	0.1359905254572596	0.2839024755355925	1.1344860013455924	0.17747615315402415	0.33928527711431555	1.5169547468171976	0.19345419775656103	0.4276565523242966	1.9503513661215268	0.17179216524637933	0.22010757149756932	1.9999796714572182	0.12342235578704935	0.23295386936859636	1.9765130072980917	0.21469546843502998	0.4701782618348741	1.9969031150883652	0.26374737775630874	0.21561424715361352	0.4637607745771725	0.26005553423898764	0.11062094150716734	0.21978321630066844	0.26445804830135944	0.0902121925579698	0.3704132631512991	0.4484780310505595	0.1956956555062589	0.5502635192695348	0.47467699465156266	0.20674115274889435	0.8722514759352911	0.3216366014375496	0.09878213464002539	1.0648036738790863	0.2689242838240158	0.030509207530537135	1.122582198189027	0.24390655782535703	0.07964527048996851	1.1497537686958648	0.24056765760673915	0.11614060259934071	1.149969131919175	0.09268010768088712	0.24368082084438017	0.5642409938515696	0.055600838651967674	0.2216307131248983	0.8529768961803283	0.1942043076991943	0.09161807677670963	1.0474294498299146	0.2938897260341491	0.022834234841020453	1.0841485385937695	0.2935140607860177	0.024632028396408552	1.1173806198618648	0.2396389122000785	0.09140361288620519	1.1587106964868101
42	0.711864406779661	0.3678501395816764	0.28093423161457587	1.1228418130357045	0.37530785969888203	0.34672403764718596	1.497279769060707	0.3737170729581031	0.41663709710816577	1.9471479988376734	0.35168804305109624	0.24068242835282352	1.985761072385612	0.41234033952201016	0.3016782861928708	2.0107476914577553	0.34467250558658175	0.478451710695969	2.001595945178647	0.13598113222188277	0.28392136987059374	1.134497877233661	0.17750637724191545	0.3385788083095067	1.5182547241931728	0.19345517435421888	0.427663161122666	1.950427334763447	0.17321758909419438	0.22246913403941457	2.0010477880075497	0.12478544654687046	0.2312284988315495	1.9749301147385054	0.21469660530389648	0.47019761894095297	1.996918393921176	0.263755369688849	0.21558651906094875	0.46376785956613126	0.26007926408284193	0.11065999951338827	0.21982790473268338	0.264429339219073	0.09037327756775612	0.37041549854376044	0.448663204771394	0.194982679626611	0.5510488479558163	0.4747675007650966	0.2063593555675362	0.8730561044183669	0.32210243739869865	0.1004500180487244	1.0649941948904957	0.268773548591035	0.03372614679296273	1.124396423825541	0.24375469319051235	0.0819068504974776	1.1503073175627516	0.24054633175403559	0.11611112824795422	1.1515011083318876	0.09269883575992446	0.24430522800232837	0.5643788639370778	0.056043083755833153	0.2218358676250822	0.853921511300773	0.19543362878072587	0.08794027513472197	1.0473941676373768	0.2938961805156989	0.022502553593447234	1.0845648828538392	0.29348370282880487	0.024242754536060045	1.1181768912372028	0.239679886120498	0.09096502654225325	1.1586790459714356
43	0.7288135593220338	0.36814510467878553	0.2806231613407957	1.1218901016916338	0.37351769502514187	0.34654573439625297	1.4974491262041154	0.37376737967450896	0.4163733754877246	1.9472918740329184	0.3517325717349143	0.24060949587226793	1.9859207685814448	0.41236648406645793	0.3015316595995844	2.011136174654826	0.3447032032124724	0.47877221494642547	2.0016564617864625	0.1359958418809086	0.28392095440160375	1.1344819987251378	0.17760775392055414	0.33764840061583157	1.520087812066856	0.19345061592597837	0.4276995914591508	1.9504839438312325	0.1744421092115524	0.22157785659945164	2.0004504301037525	0.12536010305302267	0.23210172830747783	1.9745914288953839	0.21469478898621236	0.4702359550584082	1.9969508034647625	0.26377237121803276	0.21558573472163414	0.46376295869166106	0.260078602356314	0.11071746352880839	0.21982902947411795	0.2643634962686037	0.09059987925074559	0.3704028666275041	0.4487537384192647	0.19445943954970638	0.5513492753401401	0.4748066658486817	0.20620324733176892	0.8733700132033663	0.32255735946418546	0.10196351809107689	1.0651847146809927	0.2685032272090317	0.037586001397078836	1.1265636989215664	0.24351823412958018	0.08772024436781764	1.1519443793297035	0.24056746897893125	0.11624626963783381	1.1523037058112398	0.09270614658353249	0.24481356261588236	0.563953997502903	0.05602509142849377	0.22177937633258019	0.8542045809984089	0.19638264180821532	0.08650887733833605	1.0472928715957854	0.29409358822746173	0.021828422971031367	1.085597352105032	0.2934205534055331	0.023916628965558233	1.1185472783276211	0.23973255997977483	0.09042728405883448	1.158960723484816
